<svg width="33" height="32" viewBox="0 0 33 32" fill="none" xmlns="http://www.w3.org/2000/svg">
<rect width="32" height="32" transform="translate(0.599854)" fill="white"/>
<path d="M6.67993 28.0123C6.75893 28.0123 6.87742 27.9728 7.03541 27.8938C7.19339 27.8148 7.35138 27.7094 7.50937 27.5778C7.66736 27.4461 7.81218 27.3013 7.94384 27.1433C8.0755 26.959 8.14133 26.7615 8.14133 26.5509V5.49888C8.14133 5.28823 8.0755 5.10391 7.94384 4.94592C7.81218 4.7616 7.65419 4.61678 7.46987 4.51146C7.28555 4.3798 7.1144 4.27447 6.95641 4.19548C6.79842 4.11648 6.70626 4.06382 6.67993 4.03749H11.3406V6.56531C11.4196 6.38099 11.5381 6.1835 11.6961 5.97285C12.0647 5.47255 12.6177 4.99859 13.3549 4.55095C14.1186 4.07699 15.1981 3.84 16.5937 3.84C17.3047 3.84 17.9761 3.94533 18.6081 4.15598C19.24 4.36663 19.8061 4.66944 20.3064 5.06442C20.8331 5.45939 21.2675 5.93335 21.6099 6.48631C21.9522 7.01294 22.176 7.6054 22.2813 8.26368C22.3866 9.00096 22.3603 9.67241 22.2023 10.278C22.0443 10.8573 21.7942 11.384 21.4519 11.8579C21.1096 12.3056 20.7014 12.7005 20.2275 13.0428C19.7798 13.3851 19.3059 13.688 18.8056 13.9513C20.0695 13.8196 21.2807 13.9908 22.4393 14.4647C23.1766 14.7544 23.8349 15.1757 24.4141 15.7286C24.9934 16.2553 25.4542 16.8741 25.7965 17.585C26.1652 18.296 26.4153 19.0596 26.547 19.8758C26.6787 20.6921 26.6655 21.5216 26.5075 22.3642C26.2179 23.9967 25.4279 25.3133 24.1377 26.3139C22.6894 27.4461 20.7804 28.0123 18.4106 28.0123H6.67993ZM17.8971 27.5778C19.477 27.5778 20.7014 27.2091 21.5704 26.4719C22.4393 25.7346 23.0054 24.8393 23.2687 23.7861C23.5584 22.7065 23.5847 21.5742 23.3477 20.3893C23.1107 19.2044 22.6631 18.1511 22.0048 17.2295C21.3729 16.2816 20.5698 15.5838 19.5955 15.1362C18.6476 14.6886 17.5943 14.6754 16.4357 15.0967C15.8301 15.3073 15.2376 15.6365 14.6584 16.0841C14.1054 16.5054 13.6051 16.9794 13.1575 17.506C12.7098 18.0326 12.328 18.5856 12.012 19.1649C11.6961 19.7179 11.4723 20.2313 11.3406 20.7053V27.6173L17.8971 27.5778ZM12.5255 5.69637C12.1569 6.03868 11.8804 6.38099 11.6961 6.7233C11.5381 7.0656 11.4196 7.35525 11.3406 7.59223V19.4414C11.6829 18.6778 12.17 17.9405 12.802 17.2295C13.4339 16.4923 14.1449 15.8603 14.9348 15.3337C15.2771 15.123 15.6195 14.9387 15.9618 14.7807C16.3041 14.6227 16.6595 14.4779 17.0282 14.3462C17.9235 14.0039 18.5422 13.451 18.8845 12.6874C19.2532 11.9238 19.4112 11.0943 19.3585 10.199C19.3059 9.27744 19.0689 8.38218 18.6476 7.51324C18.2526 6.6443 17.7391 5.94652 17.1072 5.41989C16.4752 4.89326 15.7511 4.61678 14.9348 4.59045C14.1449 4.56412 13.3418 4.93276 12.5255 5.69637Z" fill="black"/>
    <style>
        path { fill: #000}
        rect { fill: #FFF}
        @media (prefers-color-scheme: dark) {
        path { fill: #FFF}
        rect { fill: #000}
        }
    </style>
</svg>
